<?xml version="1.0" standalone="no"?>
<!DOCTYPE svg PUBLIC "-//W3C//DTD SVG 20010904//EN"
 "http://www.w3.org/TR/2001/REC-SVG-20010904/DTD/svg10.dtd">
<svg version="1.0" xmlns="http://www.w3.org/2000/svg"
 width="512.000000pt" height="512.000000pt" viewBox="0 0 512.000000 512.000000"
 preserveAspectRatio="xMidYMid meet">
<metadata>
Created by potrace 1.14, written by Peter Selinger 2001-2017
</metadata>
<g transform="translate(0.000000,512.000000) scale(0.100000,-0.100000)"
fill="#000000" stroke="none">
<path d="M0 2560 l0 -2560 2560 0 2560 0 0 2560 0 2560 -2560 0 -2560 0 0
-2560z m760 968 c34 -17 52 -36 72 -73 20 -37 467 -1082 612 -1430 l17 -40
283 725 c155 399 288 735 294 746 32 60 121 101 193 89 51 -9 112 -54 133
-100 36 -75 36 -77 -378 -1045 -346 -809 -391 -909 -425 -942 -85 -81 -203
-71 -274 24 -21 28 -771 1777 -792 1846 -13 43 4 111 38 149 63 71 148 90 227
51z m2068 -7 c20 -11 49 -32 63 -48 14 -15 160 -235 324 -488 164 -253 311
-479 328 -503 l29 -43 339 508 c187 279 352 521 367 536 40 42 75 57 134 57
88 0 156 -54 178 -141 7 -31 10 -319 8 -954 l-3 -910 -23 -40 c-59 -102 -200
-126 -293 -48 -67 57 -63 22 -69 723 l-5 635 -253 -387 c-276 -421 -290 -437
-380 -446 -57 -5 -115 20 -153 65 -13 16 -134 203 -269 417 l-245 388 -5 -659
c-4 -465 -8 -665 -16 -683 -27 -57 -95 -100 -159 -100 -70 0 -125 37 -156 105
-18 38 -19 87 -19 965 0 876 1 927 19 965 20 43 40 64 86 88 42 23 127 21 173
-2z"/>
</g>
</svg>
